PathFileType	4	(X/Y/Z)	C:\Git\research_data\torsion_deformities_healthy_kinematics\simulations\TD07\pre\static_01\markers_HJC.trc
DataRate	CameraRate	NumFrames	NumMarkers	Units	OrigDataRate	OrigDataStartFrame	OrigNumFrames
200	200	6	40	mm	200	16	120
Frame#	Time	C7			T10			CLAV			STRN			RBAK			LASI			RASI			SACR			RT1			RT2			RT3			RKNE			RS1			RS2			RS3			RANK			RHEE			RTOE			RM5D			LT1			LT2			LT3			LKNE			LS1			LS2			LS3			LANK			LHEE			LTOE			LM5D			RHJC			LHJC			LKNM			LANM			RKNM			RANM			LKJC			LAJC			RKJC			RAJC		
		X1	Y1	Z1	X2	Y2	Z2	X3	Y3	Z3	X4	Y4	Z4	X5	Y5	Z5	X6	Y6	Z6	X7	Y7	Z7	X8	Y8	Z8	X9	Y9	Z9	X10	Y10	Z10	X11	Y11	Z11	X12	Y12	Z12	X13	Y13	Z13	X14	Y14	Z14	X15	Y15	Z15	X16	Y16	Z16	X17	Y17	Z17	X18	Y18	Z18	X19	Y19	Z19	X20	Y20	Z20	X21	Y21	Z21	X22	Y22	Z22	X23	Y23	Z23	X24	Y24	Z24	X25	Y25	Z25	X26	Y26	Z26	X27	Y27	Z27	X28	Y28	Z28	X29	Y29	Z29	X30	Y30	Z30	X31	Y31	Z31	X32	Y32	Z32	X33	Y33	Z33	X34	Y34	Z34	X35	Y35	Z35	X36	Y36	Z36	X37	Y37	Z37	X38	Y38	Z38	X39	Y39	Z39	X40	Y40	Z40	

16	0.075000	655.193115	1226.522583	349.707123	661.780273	1004.424866	344.940216	669.763367	1199.893677	223.102554	670.409973	1067.565430	155.049866	755.888794	1094.095825	361.052216	547.339966	796.715698	205.468918	803.207031	833.357056	198.238541	672.363892	853.584473	355.809235	865.632996	607.145630	309.314026	863.602173	546.657104	336.748260	875.560425	545.613159	288.219604	881.760681	442.169373	298.824127	915.408569	350.491669	350.879883	921.867676	287.572510	376.803711	937.871826	292.811951	326.478363	962.157410	87.263763	322.004456	922.898254	45.929047	358.749878	978.963867	47.566521	167.449158	1003.175049	34.402096	257.644684	482.713562	615.217102	253.569122	473.346375	559.326904	289.270599	482.409821	550.733337	238.679337	453.101257	421.838074	304.073273	401.073395	310.175751	318.336945	386.101440	255.319794	353.309296	381.450623	248.711746	302.436493	348.687988	71.274818	335.017487	387.065826	43.377968	357.721130	297.931427	42.724030	178.668823	286.211731	29.790743	273.315887	779.329425	755.023020	267.294231	596.010255	728.770860	272.474525	542.513733	382.858551	260.799500	407.292755	67.433624	271.859894	793.001160	404.819672	267.278748	888.294434	74.956238	278.185822	497.807495	402.348312	282.436386	377.990372	69.354221	303.438690	837.380920	423.494522	283.051437	925.225922	81.110001	300.095139	
17	0.080000	655.148865	1226.569458	349.678955	661.805542	1004.437012	344.954041	669.729614	1199.904297	223.089539	670.402466	1067.575439	155.025970	755.901428	1094.161865	361.041382	547.338928	796.728943	205.547348	803.207397	833.352417	198.309723	672.362793	853.594238	355.881927	865.618164	607.148010	309.373627	863.591858	546.664429	336.772888	875.560181	545.616516	288.274628	881.754517	442.173004	298.874146	915.420959	350.484863	350.936127	921.880554	287.554840	376.825531	937.870728	292.818756	326.503845	962.164551	87.264938	322.003632	922.901794	45.928669	358.754028	978.963013	47.570137	167.450012	1003.170593	34.402466	257.654144	482.703186	615.226990	253.638367	473.333771	559.331116	289.334351	482.412537	550.737671	238.748871	453.091553	421.840210	304.110962	401.065155	310.174622	318.362183	386.099915	255.323608	353.321320	381.445496	248.712830	302.455017	348.689758	71.272285	335.019806	387.068542	43.374062	357.718567	297.930328	42.723019	178.670349	286.211914	29.788343	273.317474	779.326119	755.023149	267.368986	596.005890	728.783794	272.554475	542.504639	382.869110	260.840240	407.291809	67.437111	271.862640	792.993225	404.819366	267.326355	888.299500	74.958694	278.192230	497.798096	402.354660	282.475601	377.990784	69.354698	303.441223	837.373871	423.496185	283.100250	925.232025	81.111816	300.097931	
18	0.085000	655.105347	1226.615723	349.650787	661.830872	1004.449036	344.967346	669.695984	1199.914795	223.075806	670.394226	1067.585449	155.001770	755.914001	1094.226929	361.029816	547.337524	796.742126	205.624619	803.207275	833.347839	198.378632	672.362122	853.603821	355.952942	865.603271	607.150513	309.431305	863.580750	546.671692	336.797943	875.559753	545.619873	288.327881	881.748413	442.176666	298.922760	915.433167	350.478302	350.990906	921.893188	287.537720	376.846527	937.869568	292.825531	326.528564	962.171509	87.266144	322.002808	922.905273	45.928303	358.758087	978.962158	47.573643	167.450867	1003.166321	34.402843	257.663269	482.692719	615.236877	253.706558	473.321259	559.335266	289.397125	482.414703	550.742188	238.817200	453.081909	421.842316	304.147888	401.057037	310.173523	318.386932	386.098419	255.327377	353.333099	381.440399	248.713882	302.473114	348.691589	71.269798	335.022064	387.071259	43.370251	357.716034	297.929230	42.722023	178.671829	286.212097	29.785999	273.319000	779.322686	755.023259	267.441463	596.001482	728.796621	272.632944	542.495544	382.879547	260.880096	407.290894	67.440521	271.865295	792.985291	404.819031	267.372894	888.304443	74.961082	278.198547	497.788727	402.360931	282.513992	377.991241	69.355160	303.443680	837.366852	423.497849	283.147827	925.237976	81.113613	300.100677	
19	0.090000	655.062500	1226.661499	349.622650	661.856262	1004.460876	344.980164	669.662476	1199.925415	223.061356	670.385193	1067.595581	154.977234	755.926453	1094.290894	361.017517	547.335815	796.755310	205.700729	803.206787	833.343262	198.445267	672.361877	853.613281	356.022217	865.588379	607.153015	309.487030	863.568848	546.678894	336.823456	875.559204	545.623169	288.379303	881.742188	442.180359	298.970001	915.445068	350.471924	351.044220	921.905579	287.521149	376.866760	937.868408	292.832275	326.552460	962.178223	87.267365	322.001984	922.908691	45.927944	358.762054	978.961243	47.577034	167.451721	1003.162170	34.403221	257.672119	482.682220	615.246643	253.773697	473.308838	559.339417	289.458862	482.416290	550.746765	238.884338	453.072357	421.844452	304.184052	401.049011	310.172485	318.411163	386.096985	255.331100	353.344543	381.435394	248.714920	302.490875	348.693512	71.267372	335.024261	387.073975	43.366539	357.713531	297.928101	42.721031	178.673279	286.212311	29.783709	273.320526	779.319198	755.023321	267.511696	595.997062	728.809400	272.709968	542.486450	382.889893	260.919067	407.290039	67.443855	271.867828	792.977356	404.818695	267.418304	888.309204	74.963394	278.204742	497.779404	402.367172	282.551559	377.991776	69.355614	303.446045	837.359772	423.499527	283.194153	925.243713	81.115379	300.103363	
20	0.095000	655.020386	1226.706909	349.594513	661.881714	1004.472656	344.992432	669.629211	1199.935913	223.046188	670.375427	1067.605835	154.952377	755.938782	1094.353760	361.004517	547.333679	796.768433	205.775650	803.205811	833.338745	198.509613	672.362061	853.622559	356.089813	865.573547	607.155701	309.540802	863.556152	546.686035	336.849396	875.558533	545.626465	288.428955	881.736023	442.184082	299.015869	915.456726	350.465790	351.096069	921.917725	287.505188	376.886200	937.867249	292.838989	326.575562	962.184753	87.268608	322.001129	922.911987	45.927593	358.765961	978.960327	47.580311	167.452576	1003.158142	34.403606	257.680664	482.671661	615.256348	253.839783	473.296478	559.343567	289.519592	482.417297	550.751526	238.950287	453.062866	421.846558	304.219452	401.041077	310.171448	318.434875	386.095581	255.334778	353.355713	381.430420	248.715942	302.508240	348.695496	71.264999	335.026398	387.076691	43.362923	357.711060	297.927002	42.720051	178.674683	286.212555	29.781473	273.321991	779.315570	755.023342	267.579638	595.992544	728.822050	272.785488	542.477417	382.900116	260.957153	407.289246	67.447121	271.870300	792.969421	404.818298	267.462616	888.313843	74.965645	278.210846	497.770142	402.373337	282.588303	377.992371	69.356060	303.448349	837.352722	423.501190	283.239243	925.249298	81.117126	300.105988	
21	0.100000	654.978943	1226.751709	349.566376	661.907227	1004.484253	345.004211	669.596069	1199.946289	223.030304	670.364868	1067.616089	154.927216	755.951050	1094.415527	360.990784	547.331177	796.781494	205.849411	803.204468	833.334229	198.571686	672.362610	853.631653	356.155670	865.558655	607.158447	309.592621	863.542603	546.693176	336.875732	875.557678	545.629761	288.476807	881.729797	442.187805	299.060333	915.468140	350.459900	351.146454	921.929688	287.489777	376.904877	937.866089	292.845673	326.597900	962.191162	87.269875	322.000275	922.915222	45.927250	358.769745	978.959412	47.583477	167.453415	1003.154236	34.403992	257.688904	482.661011	615.266052	253.904816	473.284210	559.347717	289.579315	482.417755	550.756470	239.015045	453.053467	421.848694	304.254120	401.033264	310.170471	318.458069	386.094238	255.338409	353.366577	381.425507	248.716949	302.525269	348.697601	71.262680	335.028473	387.079376	43.359406	357.708588	297.925873	42.719078	178.676056	286.212799	29.779293	273.323425	779.311895	755.023277	267.645328	595.987982	728.834572	272.859554	542.468445	382.910187	260.994354	407.288483	67.450310	271.872681	792.961426	404.817902	267.505829	888.318298	74.967827	278.216827	497.760956	402.379440	282.624237	377.993042	69.356495	303.450577	837.345612	423.502853	283.283081	925.254730	81.118851	300.108551	
